<?xml version="1.0" standalone="no"?>
<!DOCTYPE svg PUBLIC "-//W3C//DTD SVG 20010904//EN"
 "http://www.w3.org/TR/2001/REC-SVG-20010904/DTD/svg10.dtd">
<svg version="1.0" xmlns="http://www.w3.org/2000/svg"
 width="1536.000000pt" height="1536.000000pt" viewBox="0 0 1536.000000 1536.000000"
 preserveAspectRatio="xMidYMid meet">
<metadata>
Created by potrace 1.11, written by Peter Selinger 2001-2013
</metadata>
<g transform="translate(0.000000,1536.000000) scale(0.100000,-0.100000)"
fill="#000000" stroke="none">
<path d="M0 7680 l0 -7680 7680 0 7680 0 0 7680 0 7680 -7680 0 -7680 0 0
-7680z m8030 6895 c1019 -37 2137 -362 3065 -893 2088 -1193 3405 -3369 3484
-5754 39 -1188 -202 -2295 -727 -3345 -1128 -2253 -3419 -3723 -5925 -3801
-1193 -38 -2290 200 -3337 723 -2258 1128 -3730 3419 -3808 5928 -38 1193 200
2290 723 3337 1125 2252 3406 3721 5915 3810 209 7 286 6 610 -5z"/>
<path d="M2510 8136 l0 -1756 365 0 365 0 0 630 0 630 378 0 c548 0 723 16
932 86 379 127 577 378 630 802 15 115 15 376 0 480 -65 471 -325 743 -815
855 -86 19 -127 20 -972 24 l-883 4 0 -1755z m1562 1133 c263 -52 378 -182
395 -444 14 -216 -51 -390 -176 -473 -141 -95 -186 -102 -663 -102 l-388 0 0
515 0 515 390 0 c234 0 410 -4 442 -11z"/>
<path d="M5501 9683 c33 -115 256 -903 497 -1753 l438 -1545 341 -3 341 -2 10
47 c99 458 436 2121 479 2356 31 174 59 315 61 313 2 -2 28 -138 57 -302 30
-165 153 -775 272 -1356 l218 -1058 350 0 351 0 487 1733 c268 952 490 1742
494 1755 l5 22 -372 -2 -373 -3 -237 -1028 c-131 -566 -259 -1138 -286 -1273
-27 -134 -51 -238 -55 -231 -3 6 -25 113 -49 237 -23 124 -139 690 -256 1258
-118 568 -214 1035 -214 1038 0 2 -175 4 -390 4 -214 0 -390 -3 -390 -7 0 -5
-90 -469 -200 -1033 -110 -564 -221 -1135 -246 -1270 -25 -135 -47 -246 -48
-247 -1 -2 -22 106 -45 240 -32 184 -450 2045 -512 2280 l-10 37 -388 0 -388
0 58 -207z"/>
<path d="M10462 8142 c-342 -961 -622 -1750 -622 -1755 0 -4 172 -6 382 -5
l381 3 120 358 119 357 648 0 648 0 46 -142 c24 -79 75 -241 112 -360 l68
-218 398 0 397 0 -53 153 c-30 83 -300 847 -601 1697 -301 850 -556 1571 -567
1603 l-20 57 -416 0 -417 0 -623 -1748z m1253 253 c118 -373 215 -679 215
-681 0 -2 -200 -4 -444 -4 l-444 0 88 268 c49 147 150 455 225 685 75 230 139
417 141 414 2 -2 101 -309 219 -682z"/>
</g>
</svg>
